<?xml version="1.0" encoding="iso-8859-1"?>
<!-- Generator: Adobe Illustrator 19.0.0, SVG Export Plug-In . SVG Version: 6.00 Build 0)  -->
<svg version="1.1" id="Layer_1" xmlns="http://www.w3.org/2000/svg" xmlns:xlink="http://www.w3.org/1999/xlink" x="0px" y="0px"
	 viewBox="0 0 512 512" style="enable-background:new 0 0 512 512;" xml:space="preserve">
<g transform="translate(1 1)">
	<g>
		<g>
			<path d="M101.4,365.933c-9.387,0-17.067,7.68-17.067,17.067s7.68,17.067,17.067,17.067c9.387,0,17.067-7.68,17.067-17.067
				S110.787,365.933,101.4,365.933z"/>
			<path d="M408.6,365.933c-9.387,0-17.067,7.68-17.067,17.067s7.68,17.067,17.067,17.067s17.067-7.68,17.067-17.067
				S417.987,365.933,408.6,365.933z"/>
			<path d="M383,306.2h-17.067c-5.12,0-8.533,3.413-8.533,8.533s3.413,8.533,8.533,8.533H383c5.12,0,8.533-3.413,8.533-8.533
				S388.12,306.2,383,306.2z"/>
			<path d="M499.907,288.28l-33.28-13.653l-21.333-85.333c-2.56-11.947-12.8-19.627-24.747-19.627H314.733
				c-5.12,0-8.533,3.413-8.533,8.533v17.067h-8.533V84.333c0-5.12-3.413-8.533-8.533-8.533H255h-51.2h-34.133
				c-5.12,0-8.533,3.413-8.533,8.533v25.6h-25.6h-51.2H50.2c-5.12,0-8.533,3.413-8.533,8.533v76.8h-8.533
				c-5.12,0-8.533,3.413-8.533,8.533v59.733H7.533c-5.12,0-8.533,3.413-8.533,8.533v102.4c0,9.387,7.68,17.067,17.067,17.067H50.93
				c4.095,24.134,25.217,42.667,50.47,42.667c25.253,0,46.375-18.533,50.47-42.667h206.26c4.095,24.134,25.217,42.667,50.47,42.667
				c25.253,0,46.375-18.533,50.47-42.667h34.863c9.387,0,17.067-7.68,17.067-17.067v-69.973
				C511,296.813,506.733,290.84,499.907,288.28z M246.467,92.867v27.307l-11.947-8.533c-1.707-0.853-3.413-1.707-5.12-1.707
				s-3.413,0.853-5.12,0.853l-11.947,8.533V92.867H246.467z M178.2,92.867h17.067v42.667c0,3.413,1.707,5.973,5.12,6.827
				c2.56,1.707,5.973,1.707,8.533,0l20.48-13.653l20.48,13.653c1.707,0.853,3.413,1.707,5.12,1.707s2.56,0,4.267-0.853
				c2.56-1.707,4.267-4.267,4.267-7.68V92.867H280.6v102.4H178.2v-76.8V92.867z M127,127v27.307l-11.947-8.533
				c-1.707-0.853-3.413-1.707-5.12-1.707s-3.413,0.853-5.12,0.853l-11.947,8.533V127H127z M58.733,127H75.8v42.667
				c0,3.413,1.707,5.973,5.12,6.827c2.56,1.707,5.973,1.707,8.533,0l20.48-13.653l20.48,13.653c1.707,0.853,3.413,1.707,5.12,1.707
				s2.56,0,4.267-0.853c2.56-1.707,4.267-4.267,4.267-7.68V127h17.067v68.267h-102.4V127z M41.667,212.333H50.2h119.467h119.467
				H306.2v51.2H41.667V212.333z M101.4,417.133c-18.773,0-34.133-15.36-34.133-34.133s15.36-34.133,34.133-34.133
				c18.773,0,34.133,15.36,34.133,34.133S120.173,417.133,101.4,417.133z M408.6,417.133c-18.773,0-34.133-15.36-34.133-34.133
				s15.36-34.133,34.133-34.133c18.773,0,34.133,15.36,34.133,34.133S427.373,417.133,408.6,417.133z M493.933,374.467H459.07
				c-2.881-16.98-14.192-31.177-29.444-38.106c-0.338-0.155-0.674-0.314-1.017-0.461c-0.215-0.092-0.433-0.176-0.65-0.265
				c-0.552-0.229-1.107-0.452-1.669-0.661c-0.153-0.057-0.308-0.109-0.462-0.165c-0.625-0.226-1.254-0.441-1.89-0.643
				c-0.138-0.044-0.276-0.085-0.415-0.127c-0.648-0.199-1.302-0.387-1.962-0.56c-0.146-0.038-0.292-0.076-0.439-0.113
				c-0.648-0.164-1.301-0.316-1.96-0.455c-0.166-0.035-0.331-0.071-0.497-0.104c-0.636-0.128-1.277-0.242-1.922-0.346
				c-0.191-0.031-0.381-0.064-0.573-0.093c-0.621-0.093-1.248-0.17-1.877-0.24c-0.213-0.024-0.425-0.052-0.639-0.074
				c-0.629-0.062-1.263-0.107-1.899-0.146c-0.21-0.013-0.417-0.033-0.628-0.043c-0.837-0.041-1.68-0.065-2.529-0.065
				c-0.849,0-1.692,0.024-2.529,0.065c-0.21,0.01-0.418,0.03-0.628,0.043c-0.636,0.039-1.27,0.084-1.899,0.146
				c-0.214,0.021-0.426,0.05-0.639,0.074c-0.629,0.07-1.256,0.148-1.877,0.24c-0.192,0.029-0.382,0.062-0.574,0.093
				c-0.645,0.104-1.285,0.218-1.921,0.345c-0.167,0.034-0.332,0.069-0.498,0.104c-0.658,0.139-1.311,0.291-1.959,0.455
				c-0.146,0.037-0.293,0.074-0.439,0.113c-0.66,0.174-1.314,0.361-1.962,0.561c-0.138,0.042-0.276,0.083-0.414,0.127
				c-0.637,0.202-1.267,0.418-1.892,0.644c-0.153,0.055-0.308,0.107-0.46,0.164c-0.563,0.21-1.119,0.433-1.672,0.662
				c-0.215,0.089-0.433,0.172-0.647,0.264c-0.343,0.148-0.68,0.307-1.019,0.463c-15.25,6.93-26.561,21.126-29.441,38.105H151.87
				c-2.881-16.98-14.192-31.177-29.444-38.106c-0.338-0.155-0.674-0.314-1.017-0.461c-0.215-0.092-0.433-0.176-0.65-0.265
				c-0.552-0.229-1.107-0.452-1.669-0.661c-0.153-0.057-0.308-0.109-0.462-0.165c-0.625-0.226-1.254-0.441-1.89-0.643
				c-0.138-0.044-0.276-0.085-0.415-0.127c-0.648-0.199-1.302-0.386-1.962-0.56c-0.146-0.038-0.292-0.076-0.439-0.113
				c-0.648-0.164-1.301-0.316-1.959-0.455c-0.166-0.035-0.331-0.071-0.498-0.104c-0.636-0.128-1.277-0.242-1.921-0.346
				c-0.191-0.031-0.381-0.064-0.573-0.093c-0.621-0.093-1.248-0.17-1.877-0.24c-0.213-0.024-0.425-0.052-0.639-0.074
				c-0.629-0.062-1.263-0.107-1.899-0.146c-0.21-0.013-0.417-0.033-0.628-0.043c-0.837-0.041-1.68-0.065-2.529-0.065
				c-0.849,0-1.692,0.024-2.529,0.065c-0.21,0.01-0.418,0.03-0.628,0.043c-0.636,0.039-1.27,0.084-1.899,0.146
				c-0.214,0.021-0.426,0.05-0.639,0.074c-0.629,0.07-1.256,0.148-1.877,0.24c-0.192,0.029-0.382,0.062-0.574,0.093
				c-0.645,0.104-1.285,0.218-1.921,0.345c-0.167,0.034-0.332,0.069-0.498,0.104c-0.658,0.139-1.311,0.291-1.959,0.455
				c-0.146,0.037-0.293,0.074-0.439,0.113c-0.66,0.174-1.314,0.361-1.962,0.561c-0.138,0.042-0.276,0.083-0.414,0.127
				c-0.637,0.202-1.267,0.418-1.892,0.644c-0.153,0.055-0.308,0.107-0.46,0.164c-0.563,0.21-1.119,0.433-1.672,0.662
				c-0.215,0.089-0.433,0.172-0.647,0.264c-0.343,0.148-0.68,0.307-1.019,0.463c-15.25,6.93-26.561,21.126-29.441,38.105H16.067
				V280.6h17.067h281.6c5.12,0,8.533-3.413,8.533-8.533V203.8v-17.067h97.28c4.267,0,7.68,3.413,8.533,6.827l19.44,78.507h-74.053
				v-51.2c0-5.12-3.413-8.533-8.533-8.533s-8.533,3.413-8.533,8.533V280.6c0,5.12,3.413,8.533,8.533,8.533h90.453l37.547,14.507
				V374.467z"/>
		</g>
	</g>
</g>
<g>
</g>
<g>
</g>
<g>
</g>
<g>
</g>
<g>
</g>
<g>
</g>
<g>
</g>
<g>
</g>
<g>
</g>
<g>
</g>
<g>
</g>
<g>
</g>
<g>
</g>
<g>
</g>
<g>
</g>
</svg>
