<?xml version="1.0" encoding="iso-8859-1"?>
<!-- Generator: Adobe Illustrator 19.0.0, SVG Export Plug-In . SVG Version: 6.00 Build 0)  -->
<svg version="1.1" id="Layer_1" xmlns="http://www.w3.org/2000/svg" xmlns:xlink="http://www.w3.org/1999/xlink" x="0px" y="0px"
	 viewBox="0 0 500 500" style="enable-background:new 0 0 500 500;" xml:space="preserve">
<circle style="fill:#84DBFF;" cx="250" cy="250" r="250"/>
<g>
	<path style="fill:#F1543F;" d="M167.7,106.4c-5.4-11.2-18.9-15.8-30-10.4c-11.2,5.4-15.8,18.9-10.4,30c3.6,7.5,10.9,12,18.7,12.5
		l43.6,90l20-9.7l-43.6-90C170.4,122.4,171.4,113.9,167.7,106.4z"/>
	<path style="fill:#F1543F;" d="M332.3,106.4c5.4-11.2,18.9-15.8,30-10.4c11.2,5.4,15.8,18.9,10.4,30c-3.6,7.5-10.9,12-18.7,12.5
		l-43.6,90l-20-9.7l43.6-90C329.6,122.4,328.6,113.9,332.3,106.4z"/>
</g>
<path style="fill:#324A5E;" d="M362.5,209.6h-225c-15.1,0-27.4,12.3-27.4,27.4v141.8c0,15.1,12.3,27.4,27.4,27.4h225.1
	c15.1,0,27.4-12.3,27.4-27.4V237C389.9,221.9,377.7,209.6,362.5,209.6z"/>
<g>
	<circle style="fill:#FFD05B;" cx="158.8" cy="261.2" r="21.6"/>
	<circle style="fill:#FFD05B;" cx="341.2" cy="261.2" r="21.6"/>
</g>
<rect x="198.4" y="333.8" style="fill:#ACB3BA;" width="34.4" height="27.8"/>
<rect x="198.4" y="361.6" style="fill:#D7DADD;" width="34.4" height="27.8"/>
<path style="fill:#ACB3BA;" d="M168.7,361.6v10.7c0,9.5,7.7,17.1,17.1,17.1h12.6v-27.8L168.7,361.6L168.7,361.6z"/>
<path style="fill:#D7DADD;" d="M198.4,333.8h-12.6c-9.5,0-17.1,7.7-17.1,17.1v10.7h29.7L198.4,333.8L198.4,333.8z"/>
<rect x="232.8" y="361.6" style="fill:#ACB3BA;" width="34.4" height="27.8"/>
<g>
	<rect x="232.8" y="333.8" style="fill:#D7DADD;" width="34.4" height="27.8"/>
	<path style="fill:#D7DADD;" d="M301.6,333.8v27.8h29.7v-10.7c0-9.5-7.7-17.1-17.1-17.1L301.6,333.8L301.6,333.8z"/>
</g>
<g>
	<path style="fill:#ACB3BA;" d="M301.6,389.4h12.6c9.5,0,17.1-7.7,17.1-17.1v-10.7h-29.7V389.4z"/>
	<rect x="267.2" y="333.8" style="fill:#ACB3BA;" width="34.4" height="27.8"/>
</g>
<rect x="267.2" y="361.6" style="fill:#D7DADD;" width="34.4" height="27.8"/>
<g>
</g>
<g>
</g>
<g>
</g>
<g>
</g>
<g>
</g>
<g>
</g>
<g>
</g>
<g>
</g>
<g>
</g>
<g>
</g>
<g>
</g>
<g>
</g>
<g>
</g>
<g>
</g>
<g>
</g>
</svg>
