<?xml version="1.0" encoding="iso-8859-1"?>
<!-- Generator: Adobe Illustrator 19.0.0, SVG Export Plug-In . SVG Version: 6.00 Build 0)  -->
<svg version="1.1" id="Layer_1" xmlns="http://www.w3.org/2000/svg" xmlns:xlink="http://www.w3.org/1999/xlink" x="0px" y="0px"
	 viewBox="0 0 512 512" style="enable-background:new 0 0 512 512;" xml:space="preserve">
<g transform="translate(1 1)">
	<g>
		<g>
			<path d="M101.4,353.133c-9.387,0-17.067,7.68-17.067,17.067s7.68,17.067,17.067,17.067c9.387,0,17.067-7.68,17.067-17.067
				S110.787,353.133,101.4,353.133z"/>
			<path d="M408.6,353.133c-9.387,0-17.067,7.68-17.067,17.067s7.68,17.067,17.067,17.067s17.067-7.68,17.067-17.067
				S417.987,353.133,408.6,353.133z"/>
			<path d="M383,293.4h-17.067c-5.12,0-8.533,3.413-8.533,8.533s3.413,8.533,8.533,8.533H383c5.12,0,8.533-3.413,8.533-8.533
				S388.12,293.4,383,293.4z"/>
			<path d="M499.907,275.48l-33.28-13.653l-21.333-85.333c-2.56-11.947-12.8-19.627-24.747-19.627h-54.613v-51.2
				c0-9.387-7.68-17.067-17.067-17.067h-332.8C6.68,88.6-1,96.28-1,105.667v153.6v102.4c0,9.387,7.68,17.067,17.067,17.067H50.93
				c4.095,24.134,25.217,42.667,50.47,42.667c25.253,0,46.375-18.533,50.47-42.667h206.26c4.095,24.134,25.217,42.667,50.47,42.667
				c25.253,0,46.375-18.533,50.47-42.667h34.863c9.387,0,17.067-7.68,17.067-17.067v-69.973
				C511,284.013,506.733,278.04,499.907,275.48z M16.067,105.667h332.8V165.4v8.533c0,42.667-34.133,76.8-76.8,76.8h-256V105.667z
				 M101.4,404.333c-18.773,0-34.133-15.36-34.133-34.133c0-18.773,15.36-34.133,34.133-34.133c18.773,0,34.133,15.36,34.133,34.133
				C135.533,388.973,120.173,404.333,101.4,404.333z M408.6,404.333c-18.773,0-34.133-15.36-34.133-34.133
				c0-18.773,15.36-34.133,34.133-34.133c18.773,0,34.133,15.36,34.133,34.133C442.733,388.973,427.373,404.333,408.6,404.333z
				 M493.933,361.667H459.07c-2.881-16.98-14.192-31.177-29.444-38.106c-0.338-0.155-0.674-0.314-1.017-0.462
				c-0.214-0.092-0.432-0.175-0.648-0.264c-0.553-0.229-1.109-0.453-1.672-0.662c-0.152-0.056-0.306-0.108-0.459-0.163
				c-0.625-0.226-1.256-0.442-1.893-0.644c-0.138-0.044-0.276-0.085-0.415-0.127c-0.648-0.199-1.302-0.387-1.962-0.56
				c-0.146-0.038-0.292-0.076-0.439-0.113c-0.648-0.164-1.301-0.316-1.96-0.455c-0.166-0.035-0.331-0.071-0.497-0.104
				c-0.636-0.128-1.277-0.242-1.922-0.346c-0.191-0.031-0.381-0.064-0.573-0.093c-0.621-0.093-1.248-0.17-1.877-0.24
				c-0.213-0.024-0.425-0.052-0.639-0.074c-0.629-0.062-1.263-0.107-1.899-0.146c-0.21-0.013-0.417-0.033-0.628-0.043
				c-0.837-0.041-1.68-0.065-2.529-0.065c-0.849,0-1.692,0.024-2.529,0.065c-0.21,0.01-0.418,0.03-0.628,0.043
				c-0.636,0.039-1.27,0.084-1.899,0.146c-0.214,0.021-0.426,0.05-0.639,0.074c-0.629,0.07-1.256,0.148-1.877,0.24
				c-0.192,0.029-0.382,0.062-0.574,0.093c-0.645,0.104-1.285,0.218-1.921,0.345c-0.167,0.034-0.332,0.069-0.498,0.104
				c-0.658,0.139-1.311,0.291-1.959,0.455c-0.146,0.037-0.293,0.074-0.439,0.113c-0.66,0.174-1.314,0.361-1.962,0.561
				c-0.138,0.042-0.276,0.083-0.414,0.127c-0.638,0.202-1.268,0.418-1.894,0.644c-0.152,0.055-0.305,0.107-0.457,0.163
				c-0.564,0.21-1.121,0.434-1.675,0.664c-0.215,0.089-0.432,0.172-0.645,0.263c-0.343,0.148-0.68,0.308-1.019,0.463
				c-15.25,6.93-26.561,21.126-29.441,38.105H151.87c-2.881-16.98-14.192-31.177-29.444-38.106
				c-0.338-0.155-0.674-0.314-1.017-0.462c-0.214-0.092-0.432-0.175-0.648-0.264c-0.553-0.229-1.109-0.453-1.672-0.662
				c-0.152-0.056-0.306-0.108-0.459-0.163c-0.625-0.226-1.256-0.442-1.893-0.644c-0.138-0.044-0.276-0.085-0.415-0.127
				c-0.648-0.199-1.302-0.386-1.962-0.56c-0.146-0.038-0.292-0.076-0.439-0.113c-0.648-0.164-1.301-0.316-1.959-0.455
				c-0.166-0.035-0.331-0.071-0.498-0.104c-0.636-0.128-1.277-0.242-1.921-0.346c-0.191-0.031-0.381-0.064-0.573-0.093
				c-0.621-0.093-1.248-0.17-1.877-0.24c-0.213-0.024-0.425-0.052-0.639-0.074c-0.629-0.062-1.263-0.107-1.899-0.146
				c-0.21-0.013-0.417-0.033-0.628-0.043c-0.837-0.041-1.68-0.065-2.529-0.065c-0.849,0-1.692,0.024-2.529,0.065
				c-0.21,0.01-0.418,0.03-0.628,0.043c-0.636,0.039-1.27,0.084-1.899,0.146c-0.214,0.021-0.426,0.05-0.639,0.074
				c-0.629,0.07-1.256,0.148-1.877,0.24c-0.192,0.029-0.382,0.062-0.574,0.093c-0.645,0.104-1.285,0.218-1.921,0.345
				c-0.167,0.034-0.332,0.069-0.498,0.104c-0.658,0.139-1.311,0.291-1.959,0.455c-0.146,0.037-0.293,0.074-0.439,0.113
				c-0.66,0.174-1.314,0.361-1.962,0.561c-0.138,0.042-0.276,0.083-0.414,0.127c-0.638,0.202-1.268,0.418-1.894,0.644
				c-0.152,0.055-0.305,0.107-0.457,0.163c-0.564,0.21-1.121,0.434-1.675,0.664c-0.215,0.089-0.432,0.172-0.645,0.263
				c-0.343,0.148-0.68,0.308-1.019,0.463c-15.25,6.93-26.561,21.126-29.441,38.105H16.067V267.8h256
				c52.053,0,93.867-41.813,93.867-93.867h54.613c4.267,0,7.68,3.413,8.533,6.827l19.44,78.507h-37.36
				c-5.973,0-11.093-5.12-11.093-11.093v-40.107c0-5.12-3.413-8.533-8.533-8.533c-5.12,0-8.533,3.413-8.533,8.533v40.107
				c0,15.36,12.8,28.16,28.16,28.16h45.227l37.547,14.507V361.667z"/>
			<path d="M92.867,122.733H50.2c-5.12,0-8.533,3.413-8.533,8.533v93.867c0,5.12,3.413,8.533,8.533,8.533s8.533-3.413,8.533-8.533
				v-42.667h25.6c5.12,0,8.533-3.413,8.533-8.533s-3.413-8.533-8.533-8.533h-25.6v-25.6h34.133c5.12,0,8.533-3.413,8.533-8.533
				S97.987,122.733,92.867,122.733z"/>
			<path d="M237.933,139.8c5.12,0,8.533-3.413,8.533-8.533s-3.413-8.533-8.533-8.533h-42.667c-5.12,0-8.533,3.413-8.533,8.533
				v93.867c0,5.12,3.413,8.533,8.533,8.533h42.667c5.12,0,8.533-3.413,8.533-8.533c0-5.12-3.413-8.533-8.533-8.533H203.8v-34.133
				h17.067c5.12,0,8.533-3.413,8.533-8.533s-3.413-8.533-8.533-8.533H203.8v-25.6H237.933z"/>
			<path d="M314.733,225.133c0-5.12-3.413-8.533-8.533-8.533h-34.133v-34.133h17.067c5.12,0,8.533-3.413,8.533-8.533
				s-3.413-8.533-8.533-8.533h-17.067v-25.6H306.2c5.12,0,8.533-3.413,8.533-8.533s-3.413-8.533-8.533-8.533h-42.667
				c-5.12,0-8.533,3.413-8.533,8.533v93.867c0,5.12,3.413,8.533,8.533,8.533H306.2C311.32,233.667,314.733,230.253,314.733,225.133z
				"/>
			<path d="M150.497,187.518c11.326-5.571,19.169-17.238,19.169-30.652c0-18.773-15.36-34.133-34.133-34.133h-17.067
				c-5.12,0-8.533,3.413-8.533,8.533v93.867c0,5.12,3.413,8.533,8.533,8.533s8.533-3.413,8.533-8.533V191h4.437l31.403,39.253
				c1.707,2.56,4.267,3.413,6.827,3.413c1.707,0,3.413-0.853,5.12-1.707c4.267-2.56,4.267-8.533,1.707-11.947L150.497,187.518z
				 M152.6,156.867c0,9.195-7.374,16.733-16.498,17.038c-0.37-0.01-0.74-0.005-1.109,0.029H127V139.8h8.533
				C144.92,139.8,152.6,147.48,152.6,156.867z"/>
		</g>
	</g>
</g>
<g>
</g>
<g>
</g>
<g>
</g>
<g>
</g>
<g>
</g>
<g>
</g>
<g>
</g>
<g>
</g>
<g>
</g>
<g>
</g>
<g>
</g>
<g>
</g>
<g>
</g>
<g>
</g>
<g>
</g>
</svg>
